<svg xmlns="http://www.w3.org/2000/svg" xmlns:xlink="http://www.w3.org/1999/xlink" width="88" height="126" viewBox="0 0 88 126">
    <defs>
        <path id="a" d="M13.647 0L.159 39.389c-.616 2.333.555 3.206 3.512 2.62l10.26-3.075 7.256 9.674c1.781 1.36 2.966 1.074 3.552-.86l12.983-38.54L13.647 0z"/>
        <path id="c" d="M25.694 6.368L12.27 45.44c-.614 2.314.552 3.181 3.495 2.6l10.213-3.05 7.223 9.596c1.773 1.35 2.952 1.065 3.536-.853L49.66 15.502 25.694 6.368z"/>
    </defs>
    <g fill="none" fill-rule="evenodd">
        <g transform="translate(3 76)">
            <mask id="b" fill="#fff">
                <use xlink:href="#a"/>
            </mask>
            <use fill="#F14853" xlink:href="#a"/>
            <ellipse cx="40.948" cy="-32.566" fill="#C74343" mask="url(#b)" rx="48.155" ry="48.355"/>
        </g>
        <g transform="translate(34 70)">
            <mask id="d" fill="#fff">
                <use xlink:href="#c"/>
            </mask>
            <use fill="#F14853" transform="rotate(-38 30.885 30.895)" xlink:href="#c"/>
            <ellipse cx="9.804" cy="-25.779" fill="#C74343" mask="url(#d)" rx="47.935" ry="47.968"/>
        </g>
        <circle cx="44" cy="44" r="44" fill="#FFA525"/>
        <ellipse cx="44.5" cy="45" fill="#FFBD5E" stroke="#DE8700" stroke-width="6" rx="32.5" ry="33"/>
        <path fill="#FCD49C" stroke="#CD8F30" stroke-width="5" d="M35.898 34.994c3.076-8.585 5.59-12.916 7.541-12.993 2.062-.082 5.295 4.25 9.7 12.993 9.18.729 14.11 2.093 14.791 4.094.58 2.004-2.463 6.035-9.13 12.095 1.7 9.124 1.7 14.262 0 15.413-1.534 1.216-6.654-.465-15.361-5.045-7.737 4.605-12.327 6.291-13.769 5.058-1.42-1.279-1.205-6.421.643-15.426-6.93-5.6-9.992-9.401-9.188-11.404.696-1.972 5.62-3.567 14.773-4.785z"/>
        <path fill="#FFF" d="M20.074 29.935c-1.46-5.019-4.485-7.98-9.074-8.882 4.2-1.464 7.26-4.481 9.184-9.053 1.772 4.685 4.71 7.649 8.816 8.893-4.723 1.185-7.595 4.056-8.614 8.613l-.242.494-.07-.065zM29.554 45.953c-1.055-3.625-3.24-5.763-6.554-6.415 3.033-1.057 5.244-3.236 6.633-6.538 1.28 3.383 3.402 5.524 6.367 6.422-3.411.857-5.485 2.93-6.222 6.221l-.174.357-.05-.047z"/>
    </g>
</svg>
