<svg xmlns="http://www.w3.org/2000/svg" width="62" height="70" viewBox="0 0 62 70">
    <g fill="none" fill-rule="evenodd" stroke="#FFF" stroke-linecap="round" stroke-width="3" transform="translate(2 2)">
        <path d="M28.713 66S26.42 35.688 15.891 30.493c0 0-6.514-2.782-5.94 3.6a5.9 5.9 0 0 0 4.096 2.536c2.663 0 0 5.563-2.785 5.686a9.515 9.515 0 0 1-7.34-1.69A9.488 9.488 0 0 1 .12 34.133c-1.23-8.18 7.496-11.576 7.496-11.576s10.283-5.195 15.977 3.395L29 32.742M29 66s2.358-30.296 12.95-35.489c0 0 6.58-2.78 6 3.598a5.968 5.968 0 0 1-4.138 2.535c-2.689 0 0 5.56 2.814 5.683 2.6.47 5.283-.141 7.413-1.689a9.464 9.464 0 0 0 3.841-6.488c1.241-8.177-7.572-11.57-7.572-11.57s-10.674-5.234-16.26 3.352L29.29 32.76"/>
        <circle cx="29.5" cy="7.5" r="7.5"/>
    </g>
</svg>
