<svg xmlns="http://www.w3.org/2000/svg" width="71" height="71" viewBox="0 0 71 71">
    <path fill="#FFF" fill-rule="nonzero" d="M60.602 10.398C53.897 3.693 44.982 0 35.5 0c-9.482 0-18.397 3.693-25.102 10.398C3.693 17.103 0 26.018 0 35.5c0 9.482 3.693 18.397 10.398 25.102C17.103 67.307 26.018 71 35.5 71c9.482 0 18.397-3.693 25.102-10.398C67.307 53.897 71 44.982 71 35.5c0-9.482-3.693-18.397-10.398-25.102zM35.5 66.84c-8.371 0-16.241-3.26-22.16-9.18-5.92-5.919-9.18-13.789-9.18-22.16 0-7.674 2.741-14.926 7.758-20.64L22.38 25.32c-2.912 4.067-3.327 7.903-3.072 10.611l-2.506-3.26-.312 5.592c-.02.366-.031.728-.031 1.076 0 10.5 8.542 19.042 19.041 19.042 5.478 0 10.422-2.326 13.9-6.041l6.74 6.741C50.427 64.1 43.175 66.84 35.5 66.84zM24.655 39.484c-.03-.047-2.599-4.104-.285-9.327 1.513 1.598 3.316 2.224 4.973 2.127l2.258 2.258-1.841-.23 2.88 3.902c.714.968.939 2.19.6 3.265-.192.611-.494.929-.638 1.022-.069-.045-.209-.155-.394-.408l-1.36-1.846-1.705 1.532a9.534 9.534 0 0 0-3.162 7.084c0 .72.084 1.422.236 2.097a14.902 14.902 0 0 1-5.257-8.445 5.32 5.32 0 0 0 2.25.164l3.225-.465-1.78-2.73zm11.193-21.643c4.056 1.933 6.784 5.619 8.13 10.998 1.327 5.306.77 10.316.764 10.363l-.275 2.324L33.32 30.378c1.076-1.11 1.897-2.65 2.366-4.503.578-2.287.63-5.019.162-8.034zm9.149 30.097l1.46 1.461a15.001 15.001 0 0 1-1.675 1.563 9.509 9.509 0 0 0 .237-2.099c0-.316-.01-.623-.022-.925zm.555-5.327l2.317-1.375c.96-.57 1.796-1.168 2.511-1.746a14.785 14.785 0 0 1-1.53 6.42l-3.298-3.3zm-4.694 6.252a5.365 5.365 0 0 1-5.358 5.359 5.365 5.365 0 0 1-5.358-5.359c0-.917.236-1.811.673-2.599.884.43 1.696.452 2.224.392 1.644-.183 3.103-1.385 3.903-3.215a7.409 7.409 0 0 0 .612-2.77c2.193 1.746 3.304 4.502 3.304 8.192zm18.224 7.277l-7.165-7.164a18.924 18.924 0 0 0 2.624-9.636c0-1.652-.213-3.295-.634-4.884l-1.16-4.414-2.564 3.767c-.007.01-.398.564-1.178 1.338-.069-2.034-.314-4.564-.962-7.198-2.043-8.314-7.071-13.598-14.54-15.28l-3.372-.76.909 3.336c1.767 6.487.823 10.637-.655 12.198L14.859 11.918C20.574 6.9 27.826 4.16 35.5 4.16c8.371 0 16.241 3.26 22.16 9.18 5.92 5.919 9.18 13.789 9.18 22.16 0 7.674-2.741 14.926-7.758 20.64z"/>
</svg>
