<svg xmlns="http://www.w3.org/2000/svg" width="80" height="68" viewBox="0 0 80 68">
    <g fill="none" fill-rule="evenodd">
        <path stroke="#FFF" stroke-width="3" d="M24.277 64.405l25.211-26.708s2.234-1.793-2.633-5.497c-4.866-3.704-15.478-13.257-15.478-13.257s-1.436-2.573-4.587.78L3.254 44.871a4.753 4.753 0 0 0 0 6.434C5.687 53.645 18.81 64.95 18.81 64.95s2.434 2.69 5.466-.546z"/>
        <path stroke="#FFF" stroke-width="3" d="M30 18.063a3.923 3.923 0 0 1 4.57-.769 7.868 7.868 0 0 1 7.47-2.588L59.487 2.574s5.087-2.467 3.02 2.83a198.75 198.75 0 0 1-9.537 17.997s1.39 5.419-1.59 8.088A7.176 7.176 0 0 1 50.187 38"/>
        <path fill="#FFF" fill-rule="nonzero" d="M71.346 19.673s-1.674 3.717-2.141 5.241c-.272.856-.817 3.086 2.647 3.086 3.465 0 3.27-1.673 3.037-2.565-.545-1.97-2.881-7.435-2.881-7.435l-.662 1.673zM65.346 33.673s-1.674 3.717-2.141 5.241c-.272.856-.817 3.086 2.647 3.086 3.465 0 3.27-1.673 3.037-2.565-.545-1.97-2.881-7.435-2.881-7.435l-.662 1.673zM76.346 33.673s-1.674 3.717-2.141 5.241c-.272.856-.817 3.086 2.647 3.086 3.465 0 3.27-1.673 3.037-2.565-.545-1.97-2.881-7.435-2.881-7.435l-.662 1.673z"/>
    </g>
</svg>
