<svg xmlns="http://www.w3.org/2000/svg" width="19" height="20" viewBox="0 0 19 20">
    <g fill="none" fill-rule="evenodd">
        <path stroke="#003379" d="M11.89 4.526c4.084-3.083 5.133-3.781 5.636-3.329.502.452-.082 1.569-2.722 5.952a2 2 0 0 1-.46 2.062 1.5 1.5 0 0 1-.202 1.722L7.45 18.365a1.5 1.5 0 0 1-2.118.11L1.616 15.13a1.5 1.5 0 0 1-.11-2.118l6.69-7.432A1.5 1.5 0 0 1 9.889 5.2l.055-.064a2 2 0 0 1 1.948-.609z"/>
        <path fill="#003379" d="M9.237 5.172l5.202 4.684-.669.743-5.202-4.684z"/>
        <path d="M-2-3h24v24H-2z" opacity=".534"/>
    </g>
</svg>
