<svg xmlns="http://www.w3.org/2000/svg" width="70" height="66" viewBox="0 0 70 66">
    <g fill="none" fill-rule="evenodd" stroke="#FFF" stroke-width="3" transform="translate(2)">
        <path d="M5.066 63.662L.622 59.794A1.464 1.464 0 0 1 0 58.614c0-.459.229-.893.622-1.179 1.904-1.508 13.332-12.299 13.332-12.299 1.824-1.515 4.609-1.515 6.433 0 1.829 1.317 2.15 3.736.72 5.415L7.14 63.314s-1.1 1.276-2.074.348z"/>
        <rect width="41" height="17" x="25" y="13" rx="1.4" transform="rotate(45 45.5 21.5)"/>
        <path d="M60.965 34.33l3.724 3.763A3.309 3.309 0 0 1 66 40.735c0 1.04-.486 2.02-1.311 2.642l-7.657 7.736s-1.758 2.368-4.687-.634L35.608 33.57s-1.8-1.732-4.185.846L20 45.998"/>
    </g>
</svg>
