<svg xmlns="http://www.w3.org/2000/svg" width="22" height="22" viewBox="0 0 22 22">
    <path fill="#003379" fill-rule="nonzero" stroke="#003379" stroke-width=".1" d="M20.841 9.324l-8.2-8.2a.416.416 0 0 0-.588 0L8.61 4.566a.416.416 0 0 0 0 .588l8.2 8.2a.414.414 0 0 0 .587 0l1.428-1.428.839.84a.416.416 0 0 1 0 .588l-2.21 2.209a.415.415 0 0 1-.587 0l-4.646-4.646a1.243 1.243 0 0 0-1.765 0l-3.321 3.32a1.664 1.664 0 0 0-2.04.253l-3.973 3.974a.416.416 0 0 0 0 .588l1.787 1.787a.417.417 0 0 0 .588 0l3.974-3.974a1.666 1.666 0 0 0 .253-2.04l3.32-3.32a.415.415 0 0 1 .295-.121h.001c.11 0 .215.043.294.121l4.646 4.646c.235.235.548.365.882.365.334 0 .647-.13.882-.365l2.21-2.21a1.248 1.248 0 0 0 0-1.764l-.84-.839 1.427-1.427a.416.416 0 0 0 0-.588zM6.883 16.277l-3.68 3.68-1.198-1.197 3.68-3.681a.867.867 0 0 1 1.198 0 .844.844 0 0 1 0 1.198zm11.649-5.234l-.001.001-1.428 1.428L9.49 4.859l2.856-2.855 7.612 7.613-1.426 1.426z"/>
</svg>
