<svg xmlns="http://www.w3.org/2000/svg" width="20" height="10" viewBox="0 0 20 10">
    <g fill="none" fill-rule="evenodd">
        <g fill-rule="nonzero">
            <path fill="#FC1D2C" d="M.394 9.308a1.348 1.348 0 0 1 0-1.905L7.403.394A1.348 1.348 0 0 1 9.308 2.3L2.3 9.308a1.348 1.348 0 0 1-1.906 0z"/>
            <path fill="#FEDD33" d="M3.808 9.308a1.348 1.348 0 0 1 0-1.905L10.817.394A1.348 1.348 0 0 1 12.722 2.3L5.713 9.308a1.348 1.348 0 0 1-1.905 0z"/>
            <path fill="#1CB743" d="M7.3 9.308a1.348 1.348 0 0 1 0-1.905L14.308.394A1.348 1.348 0 0 1 16.213 2.3L9.205 9.308a1.348 1.348 0 0 1-1.905 0z"/>
            <path fill="#24C2F3" d="M10.653 9.308a1.348 1.348 0 0 1 0-1.905L17.662.394A1.348 1.348 0 0 1 19.567 2.3l-7.009 7.008a1.348 1.348 0 0 1-1.905 0z"/>
        </g>
        <path d="M-2-7h24v24H-2z" opacity=".534"/>
    </g>
</svg>
