<svg xmlns="http://www.w3.org/2000/svg" width="85" height="73" viewBox="0 0 85 73">
    <path fill="none" fill-rule="evenodd" stroke="#FFF" stroke-width="3" d="M24.376 70.955h36.727s2.672.976 2.544-6.153c-.127-7.129 0-30.85 0-30.85V30.22a32.129 32.129 0 0 1 9.415 1.273s2.757 1.782 4.92-4.244l4.835-10.311s1.272-1.867-2.884-4.456a75.132 75.132 0 0 0-20.23-9.887S56.268.048 55.93 6.074a14.422 14.422 0 0 1-12.723 11.584c-11.45.637-14.292-12.73-14.461-14.215C28.575 1.958 27.642 2 27.642 2S9.66 8.026 2.112 15.58c0 0-.467.212.508 2.164.976 1.952 5.938 12.306 5.938 12.306a2.673 2.673 0 0 0 3.435 1.782l7.846-1.782s1.95-.594 1.866 1.06c-.085 1.656 0 11.16 0 11.16v25.97a2.462 2.462 0 0 0 2.671 2.716z"/>
</svg>
