<svg xmlns="http://www.w3.org/2000/svg" width="63" height="69" viewBox="0 0 63 69">
    <g fill="none" fill-rule="evenodd" stroke="#FFF" stroke-width="3" transform="translate(2 2)">
        <path d="M6 58.75V19.424S6.199.237 25.367 0h9.544S54 .752 54 19.504v39.245s0 2.374-5.965 3.956A81.687 81.687 0 0 1 29.98 65a86.315 86.315 0 0 1-19.884-2.928S6 60.965 6 58.75z"/>
        <ellipse cx="29.5" cy="20.5" rx="23.5" ry="6.5"/>
        <path stroke-linecap="round" d="M11 33.666l8.282 1.097s-1.387 9.246 4.2 9.363c0 0 4.596.823 4.319-7.835v-1.058h5.944v8.384s-.753 7.482 5.23 7.365a5.306 5.306 0 0 0 4.071-1.418 5.18 5.18 0 0 0 1.635-3.95v-11.4L49 33M53 24s6.083.505 6 5.053c-.093 2.667-1.917 5.017-4.616 5.947M6 24s-6.083.544-6 5.053C.094 31.72 1.918 34.07 4.617 35"/>
    </g>
</svg>
