<svg xmlns="http://www.w3.org/2000/svg" width="46" height="68" viewBox="0 0 46 68">
    <g fill="none" fill-rule="evenodd" stroke="#FFF" stroke-width="3">
        <path d="M27.442 34H7.781a6.174 6.174 0 0 1-5.195-3.568 6.279 6.279 0 0 1 .594-6.314L13.522 3.522A4.27 4.27 0 0 1 16.786 2a4.27 4.27 0 0 1 3.264 1.522l11.403 22.382a5.802 5.802 0 0 1-.055 5.032A5.71 5.71 0 0 1 27.442 34z"/>
        <path stroke-linecap="round" d="M17 27v12M13.362 40h5.824L22 59.33S21.296 66 16.137 66C10.977 66 10 59.892 10 59.892L13.362 40zM20 6c7.108-3.379 15.432-3.93 23-1.52M25 12s6.562-4.5 18 0M29 19.754c4.992-1.334 10.402-.885 15 1.246M31 29.389S34.915 27.513 42 32"/>
    </g>
</svg>
