<svg xmlns="http://www.w3.org/2000/svg" width="65" height="68" viewBox="0 0 65 68">
    <g fill="none" fill-rule="evenodd" stroke="#FFF" stroke-width="3">
        <path d="M40.723 64.405L15.512 37.697s-2.234-1.793 2.633-5.497c4.866-3.704 15.478-13.257 15.478-13.257s1.436-2.573 4.587.78l23.536 25.148a4.753 4.753 0 0 1 0 6.434C59.313 53.645 46.19 64.95 46.19 64.95s-2.434 2.69-5.466-.546z"/>
        <path d="M35 18.063a3.923 3.923 0 0 0-4.57-.769 7.868 7.868 0 0 0-7.47-2.588L5.513 2.574S.427.107 2.494 5.404a198.75 198.75 0 0 0 9.537 17.997s-1.39 5.419 1.59 8.088A7.176 7.176 0 0 0 14.813 38"/>
    </g>
</svg>
