<svg xmlns="http://www.w3.org/2000/svg" width="20" height="16" viewBox="0 0 20 16">
    <g fill="none" fill-rule="evenodd">
        <path fill="#579FFF" fill-rule="nonzero" stroke="#579FFF" stroke-width=".2" d="M18.7 7.016a.3.3 0 0 0 .3-.3v-2.7a.3.3 0 0 0-.3-.3h-2.4v-2.4a.3.3 0 0 0-.3-.3H4a.3.3 0 0 0-.3.3v2.4H1.3a.3.3 0 0 0-.3.3v2.7a.3.3 0 0 0 .3.3h2.4v2.1H1.3a.3.3 0 0 0-.3.3v2.7a.3.3 0 0 0 .3.3h2.4v2.4a.3.3 0 0 0 .3.3h12a.3.3 0 0 0 .3-.3v-2.4h2.4a.3.3 0 0 0 .3-.3v-2.7a.3.3 0 0 0-.3-.3h-2.4v-2.1h2.4zm-8.4-5.4h5.4v2.1h-5.4v-2.1zm5.4 5.4v2.1h-5.4v-2.1h5.4zm-3-2.7v2.1H7v-2.1h5.7zm-3 2.7v2.1H4.3v-2.1h5.4zm-5.4-5.4h5.4v2.1H4.3v-2.1zm-2.7 4.8v-2.1h4.8v2.1H1.6zm0 5.4v-2.1h4.8v2.1H1.6zm8.1 2.7H4.3v-2.1h5.4v2.1zm-2.7-2.7v-2.1h5.7v2.1H7zm8.7 2.7h-5.4v-2.1h5.4v2.1zm2.7-4.8v2.1h-5.1v-2.1h5.1zm-2.4-3.3h-2.7v-2.1h5.1v2.1H16z"/>
        <path d="M-2-4h24v24H-2z" opacity=".534"/>
    </g>
</svg>
