<svg xmlns="http://www.w3.org/2000/svg" width="73" height="66" viewBox="0 0 73 66">
    <g fill="none" fill-rule="evenodd" stroke="#FFF" stroke-width="3" transform="translate(2 2)">
        <path d="M5.957 13.26c1.795-2.106 4.232-3.712 7.024-4.63 0 0 1.59 0 4.181-4.443 2.635-1.413 5.714-2.036 8.78-1.778 3.033.23 6.043-.624 8.362-2.37 2.706-.204 5.412.396 7.693 1.703a47.126 47.126 0 0 1 8.11 3.37c.892.72 2.056 1.116 3.261 1.111 0 0 3.889-.11 6.355 4.63 2.467 4.74 4.181 5.036 4.181 5.036s2.342.482 3.01 5.518c.501 1.75.501 3.583 0 5.333a6.783 6.783 0 0 0 .419 4.333c.368 1.26.83 2.497 1.38 3.704.731 1.984.038 4.164-1.757 5.518-1.711 1.56-2.936 3.486-3.553 5.592 0 0 0 3.703-1.673 4.925-1.672 1.222-2.341 2.852-5.56 3.704a25.915 25.915 0 0 0-7.024 3.444 10.604 10.604 0 0 1-2.801 2.555c-1.422.704-6.146 1.963-7.359 1.296-2.69-1.47-6.088-1.47-8.78 0-2.412-.006-4.778-.582-6.856-1.666-1.679-1.472-3.879-2.388-6.23-2.593-2.132 0-4.808-2.666-4.808-2.666a16.596 16.596 0 0 1-2.09-3.074c0-.592-1.798-1.889-1.798-1.889A22.111 22.111 0 0 1 6 46.59c-.54-.834-1.378-1.486-2.383-1.851a9.227 9.227 0 0 1-2.425-3.074A13.874 13.874 0 0 1 .062 34.74c.586-2.704 1.338-1.556 1.255-6.407-.324-2.192.176-4.418 1.421-6.333a10.432 10.432 0 0 0 1.254-5c-.1-1.46.64-2.867 1.965-3.74z"/>
        <ellipse cx="34.5" cy="32" rx="23.5" ry="21"/>
        <ellipse cx="35" cy="31.5" rx="13" ry="11.5"/>
        <circle cx="34.5" cy="31.5" r="2.5"/>
    </g>
</svg>
