<svg xmlns="http://www.w3.org/2000/svg" width="22" height="18" viewBox="0 0 22 18">
    <g fill="none" fill-rule="evenodd">
        <g fill="#579FFF" fill-rule="nonzero" stroke="#579FFF" stroke-width=".2">
            <path d="M12.652.315c-.156-.007-.314-.01-.47-.01C9.2.305 6.386 1.513 4.26 3.706 2.158 5.876 1 8.717 1 11.706c0 .254.01.519.027.779 0 .002.008.26.041.419h-.002a2.361 2.361 0 0 0 2.329 1.948c.723 0 1.394-.333 1.888-.938.132-.162.257-.295.454-.295.145 0 .236.011.42.238a8.33 8.33 0 0 0 6.481 3.103c4.667 0 8.323-3.656 8.323-8.323 0-4.692-3.417-8.114-8.309-8.322zm-.014 15.977a7.665 7.665 0 0 1-5.963-2.856c-.28-.344-.551-.485-.938-.485-.53 0-.827.365-.971.54-.365.447-.852.694-1.371.694a1.695 1.695 0 0 1-1.672-1.398v-.002a3.03 3.03 0 0 1-.028-.314v-.023c-.019-.257-.027-.5-.027-.741C1.668 5.888 6.483.973 12.182.973c.147 0 .294.003.442.01 4.515.192 7.669 3.34 7.669 7.654 0 4.293-3.363 7.655-7.655 7.655z"/>
            <path d="M13.677 11.42c-1.021 0-1.852.83-1.852 1.85 0 1.022.83 1.853 1.852 1.853 1.02 0 1.852-.831 1.852-1.852 0-1.021-.831-1.852-1.852-1.852zm0 3.035a1.185 1.185 0 0 1-1.184-1.184c0-.653.531-1.184 1.184-1.184.653 0 1.184.531 1.184 1.184 0 .653-.531 1.184-1.184 1.184zM16.914 8.677c-.91 0-1.65.74-1.65 1.65 0 .91.74 1.65 1.65 1.65.91 0 1.65-.74 1.65-1.65 0-.91-.74-1.65-1.65-1.65zm0 2.633a.983.983 0 1 1 .983-.982c0 .541-.442.982-.983.982zM16.81 7.978c.857 0 1.553-.696 1.553-1.553 0-.855-.696-1.551-1.552-1.551-.856 0-1.553.696-1.553 1.551 0 .857.697 1.553 1.553 1.553zm0-2.437a.885.885 0 0 1 0 1.77.885.885 0 0 1 0-1.77zM13.908 5.554c.802 0 1.455-.652 1.455-1.454 0-.802-.653-1.454-1.455-1.454s-1.454.652-1.454 1.454c0 .802.652 1.454 1.454 1.454zm0-2.24a.788.788 0 0 1 0 1.572.787.787 0 0 1 0-1.572zM10.489 2.544a1.358 1.358 0 0 0 0 2.713c.748 0 1.356-.608 1.356-1.356 0-.748-.608-1.357-1.356-1.357zm0 2.045a.69.69 0 1 1 .001-1.378.69.69 0 0 1-.001 1.378zM7.271 4.122A1.26 1.26 0 0 0 6.013 5.38a1.26 1.26 0 0 0 1.258 1.258A1.26 1.26 0 0 0 8.53 5.38 1.26 1.26 0 0 0 7.27 4.122zm0 1.849a.591.591 0 1 1 .002-1.183.591.591 0 0 1-.002 1.183z"/>
        </g>
        <path d="M-1-5h24v24H-1z" opacity=".534"/>
    </g>
</svg>
