<svg xmlns="http://www.w3.org/2000/svg" width="20" height="18" viewBox="0 0 20 18">
    <g fill="none" fill-rule="evenodd">
        <path fill="#579FFF" fill-rule="nonzero" d="M19.973 3.651c-.078-.331-.324-.54-.545-.709A18.012 18.012 0 0 0 14.317.238c-.016-.009-.033-.013-.053-.021-.004 0-.14-.045-.328-.107-.14-.04-.205-.061-.205-.061a.773.773 0 0 0-.971.615c-.082.48-.435 1.828-1.058 2.307a2.668 2.668 0 0 1-1.672.574h-.049a2.66 2.66 0 0 1-1.672-.574c-.62-.483-.972-1.828-1.058-2.307a.77.77 0 0 0-.97-.615L6.074.11a4.518 4.518 0 0 0-.356.12 17.93 17.93 0 0 0-5.21 2.762c-.532.405-.643.86-.352 1.475.55 1.172.971 2.066 1.373 2.906.082.168.324.684.988.684.098 0 .205-.012.328-.033.557-.106 1.102-.213 1.68-.32.016-.003.037-.007.053-.012v8.39c0 .766.418 1.188 1.18 1.188H14.195c.828 0 1.23-.405 1.23-1.241v-8.34l.065.012 1.648.311c.135.025.246.037.352.037.66 0 .902-.512.992-.705.475-1 .91-1.922 1.332-2.815.115-.25.233-.55.16-.878zm-1.164.406c-.422.894-.857 1.816-1.332 2.816l-.037.07-.103-.017c-.545-.102-1.09-.209-1.647-.311l-.721-.136a.557.557 0 0 0-.656.545v9.009c0 .057-.004.098-.004.13-.029.005-.066.005-.12.005H5.756c-.028 0-.053 0-.073-.004 0-.02-.004-.05-.004-.082V7.024a.557.557 0 0 0-.656-.545c-.238.045-.476.09-.71.136-.577.11-1.126.213-1.684.323-.032.009-.057.009-.077.013A1241.792 1241.792 0 0 1 1.158 4c-.017-.034-.025-.059-.034-.079.017-.012.033-.029.058-.045a16.888 16.888 0 0 1 4.914-2.598l.028-.013c.004 0 .004 0 .009-.004.02-.008.061-.02.11-.037.156.656.562 1.98 1.39 2.623.688.537 1.479.808 2.352.808h.049c.873 0 1.664-.27 2.353-.808.832-.647 1.233-1.967 1.389-2.623l.107.037c.016.008.032.012.049.02a17.028 17.028 0 0 1 4.823 2.546c.054.04.087.07.111.09-.008.029-.029.074-.057.14z"/>
        <path d="M-2-3h24v24H-2z" opacity=".534"/>
    </g>
</svg>
