<svg xmlns="http://www.w3.org/2000/svg" width="18" height="16" viewBox="0 0 18 16">
    <g fill="none" fill-rule="evenodd">
        <path d="M-3-5h24v24H-3z" opacity=".534"/>
        <path fill="#579FFF" fill-rule="nonzero" d="M16.418 0H1.582C.71 0 0 .71 0 1.582v1.055c0 .848.671 1.542 1.51 1.58L3.037 14.47c.114.77.787 1.35 1.565 1.35h8.798c.778 0 1.45-.58 1.565-1.35l.584-3.924h.87a.527.527 0 0 0 0-1.055h-.713l.784-5.275A1.584 1.584 0 0 0 18 2.637V1.582C18 .71 17.29 0 16.418 0zm-2.497 14.316a.53.53 0 0 1-.522.45H4.601a.53.53 0 0 1-.522-.45l-.09-.605h10.022l-.09.605zm.247-1.66H3.832l-1.255-8.44H7.51a1.589 1.589 0 0 0 1.174 2.08c.689 2.486 2.992 4.25 5.626 4.25h.172l-.313 2.11zm-5.695-7.91a.528.528 0 1 1 1.056.001.528.528 0 0 1-1.056 0zm6.165 4.746h-.33c-2.111 0-3.964-1.382-4.57-3.347a1.583 1.583 0 0 0 .753-1.926h4.932l-.785 5.273zm2.307-6.855c0 .29-.236.527-.527.527H1.582a.528.528 0 0 1-.527-.527V1.582c0-.29.236-.527.527-.527h14.836c.29 0 .527.236.527.527v1.055z"/>
    </g>
</svg>
