<svg xmlns="http://www.w3.org/2000/svg" width="19" height="20" viewBox="0 0 19 20">
    <g fill="none" fill-rule="evenodd">
        <path fill="#003379" fill-rule="nonzero" d="M18.648 19.46L12.676.293c-.002-.008-.011-.012-.015-.02a.412.412 0 0 0-.131-.186c-.008-.005-.017-.007-.025-.013a.408.408 0 0 0-.109-.057c-.03-.009-.059-.005-.088-.008-.01 0-.02-.009-.03-.009H7.556l-.008.002c-.037 0-.07.01-.104.02-.02.006-.04.007-.057.015-.023.011-.041.028-.062.042-.024.017-.05.03-.07.052-.013.013-.02.032-.032.048-.02.028-.04.056-.053.09l-.006.009-.878 2.471-.005.016-1.77 4.986-.005.01-1.771 4.991-.003.006-2.374 6.686A.415.415 0 0 0 .751 20a.417.417 0 0 0 .392-.277l1.38-3.89h4.74l-1.08 3.631a.417.417 0 0 0 .8.238L12.287 1.85l5.565 17.858a.419.419 0 0 0 .522.275.416.416 0 0 0 .274-.522zM7.511 15H2.82l.591-1.667h4.595L7.51 15zm.742-2.5H3.707l.592-1.667h4.45L8.252 12.5zm.743-2.5h-4.4l.591-1.667h4.304L8.996 10zm.743-2.5H5.483l.592-1.667h4.159L9.739 7.5zM10.48 5h-4.11l.591-1.667h4.014L10.481 5zm.743-2.5H7.258L7.85.833h3.869L11.224 2.5z"/>
        <path d="M-2-2h24v24H-2z" opacity=".534"/>
    </g>
</svg>
