<svg xmlns="http://www.w3.org/2000/svg" width="22" height="22" viewBox="0 0 22 22">
    <g fill="none" fill-rule="evenodd">
        <path fill="#579FFF" fill-rule="nonzero" stroke="#579FFF" stroke-width=".3" d="M10.972 9.986a1.09 1.09 0 0 0 0 2.18 1.09 1.09 0 0 0 0-2.179zm0 1.586a.497.497 0 1 1 .001-.993.497.497 0 0 1-.001.993z"/>
        <path fill="#579FFF" fill-rule="nonzero" stroke="#579FFF" stroke-width=".3" d="M10.972 7.084a3.996 3.996 0 0 0-3.992 3.992 3.996 3.996 0 0 0 3.992 3.992 3.996 3.996 0 0 0 3.992-3.992 3.996 3.996 0 0 0-3.992-3.992zm0 7.39a3.402 3.402 0 0 1-3.398-3.398 3.402 3.402 0 0 1 3.398-3.398 3.402 3.402 0 0 1 3.398 3.398 3.402 3.402 0 0 1-3.398 3.398z"/>
        <path fill="#579FFF" fill-rule="nonzero" stroke="#579FFF" stroke-width=".3" d="M10.972 4.205a6.879 6.879 0 0 0-6.87 6.87 6.879 6.879 0 0 0 6.87 6.872 6.879 6.879 0 0 0 6.87-6.871 6.879 6.879 0 0 0-6.87-6.871zm0 13.148a6.285 6.285 0 0 1-6.277-6.277 6.285 6.285 0 0 1 6.277-6.278 6.285 6.285 0 0 1 6.277 6.278 6.285 6.285 0 0 1-6.277 6.277z"/>
        <path fill="#579FFF" fill-rule="nonzero" stroke="#579FFF" stroke-width=".3" d="M20.77 11.501c-.071-.15-.159-.336-.159-.425 0-.567-.05-1.135-.147-1.688-.025-.142.003-.263.035-.403.044-.193.1-.433.003-.728a25.901 25.901 0 0 1-.133-.427c-.167-.545-.356-1.162-.622-1.624-.133-.231-.389-.402-.636-.567-.165-.111-.337-.225-.408-.322-.074-.099-.16-.348-.234-.567-.118-.346-.23-.673-.411-.864a9.741 9.741 0 0 0-.955-.881c-.305-.245-.64-.262-.935-.277-.217-.01-.405-.02-.57-.11a9.616 9.616 0 0 0-1.487-.659c-.146-.05-.34-.188-.529-.321-.283-.201-.576-.409-.881-.467A9.719 9.719 0 0 0 10.884 1c-.489 0-.91.197-1.317.388-.258.12-.5.234-.744.29-.178.04-.406.027-.647.014-.343-.018-.697-.038-1.01.089-.446.18-.882.396-1.296.641-.27.16-.435.429-.595.689-.11.18-.215.35-.332.444-.166.133-.391.225-.63.323-.345.142-.702.288-.96.588-.34.395-.65.821-.92 1.266-.224.368-.3.846-.373 1.308-.047.298-.092.58-.172.803a9.607 9.607 0 0 0-.555 3.233c0 .216-.072.476-.148.75-.107.387-.218.787-.15 1.16a9.611 9.611 0 0 0 .625 2.062c.12.28.383.46.636.634.165.113.335.23.4.339a9.678 9.678 0 0 0 1.124 1.517c.091.101.196.294.298.48.15.276.306.561.505.734.335.29.693.56 1.064.8.248.162.508.16.717.16.149 0 .277-.002.384.05.17.082.361.252.564.433.296.262.601.533.95.634.32.092.6.108.873.125.146.009.296.018.457.038a.97.97 0 0 0 .124.008c.237 0 .473-.08.703-.158.184-.063.373-.127.513-.127.234 0 .49.064.762.132.39.097.792.198 1.19.12.415-.082.82-.245 1.21-.402.124-.05.24-.096.354-.14.268-.101.475-.32.657-.514.131-.139.255-.27.374-.334.448-.24.881-.518 1.287-.827.106-.081.302-.139.491-.194.285-.084.58-.17.788-.376a9.715 9.715 0 0 0 1.038-1.214c.163-.226.186-.518.206-.776.013-.173.027-.353.08-.45a9.62 9.62 0 0 0 .609-1.328c.047-.128.176-.255.312-.389.198-.194.421-.414.49-.733.072-.34.127-.688.163-1.035.025-.247-.096-.505-.214-.754zm-.378.694a9.074 9.074 0 0 1-.153.97c-.03.146-.174.286-.325.435-.168.166-.36.354-.453.607-.157.427-.35.846-.57 1.245-.117.21-.136.456-.154.693-.015.188-.03.383-.095.474-.292.404-.62.788-.975 1.14-.101.1-.323.165-.537.227-.24.071-.49.144-.684.292-.38.29-.787.55-1.207.776-.205.11-.368.283-.526.45-.145.154-.295.313-.436.367-.12.045-.243.095-.363.143-.366.147-.745.3-1.105.37-.268.053-.59-.027-.931-.113-.294-.073-.599-.15-.906-.15-.238 0-.474.08-.703.159-.206.07-.42.142-.562.124a7.163 7.163 0 0 0-.497-.043c-.261-.015-.487-.029-.744-.102-.22-.064-.474-.29-.72-.508-.224-.2-.456-.406-.7-.524-.21-.101-.421-.109-.597-.109h-.048c-.18 0-.296-.002-.39-.063a9.116 9.116 0 0 1-1-.752c-.118-.102-.253-.35-.372-.57-.124-.226-.24-.44-.379-.593a9.127 9.127 0 0 1-1.055-1.424c-.131-.22-.356-.375-.573-.524-.184-.126-.374-.256-.427-.38a9.006 9.006 0 0 1-.586-1.933c-.044-.239.048-.572.138-.894.083-.301.17-.612.17-.91a9.212 9.212 0 0 1 .178-1.799c.084-.417.2-.833.342-1.234.098-.275.15-.597.199-.909.064-.405.13-.825.294-1.092.254-.418.544-.817.863-1.189.165-.191.442-.305.735-.425.267-.11.543-.222.776-.41.198-.158.335-.38.467-.595.122-.2.248-.405.391-.49a9.04 9.04 0 0 1 1.216-.601c.19-.077.478-.062.756-.046.27.014.552.03.81-.03.306-.069.59-.201.864-.33.365-.17.71-.332 1.066-.332.574 0 1.148.054 1.706.16.178.035.428.212.649.369.222.157.452.32.679.399.48.165.95.373 1.395.617.285.156.572.17.825.183.272.014.446.028.593.146.316.254.617.533.896.827.092.097.2.415.28.648.098.286.19.556.32.73.133.178.347.322.555.46.181.121.387.259.451.37.233.404.411.987.568 1.501.048.154.092.3.137.438.045.138.019.253-.018.411-.038.169-.086.379-.04.64.091.519.138 1.052.138 1.584 0 .222.109.454.214.678.067.142.169.358.16.441z"/>
        <path d="M-1-1h24v24H-1z" opacity=".534"/>
    </g>
</svg>
