<svg xmlns="http://www.w3.org/2000/svg" width="16" height="21" viewBox="0 0 16 21">
    <path fill="#FFF" fill-rule="nonzero" d="M1.333 1.313V5.25h13.334V1.312H1.333zM1.337 0h13.326C15.393 0 16 .588 16 1.314v18.372c0 .73-.598 1.314-1.337 1.314H1.337C.607 21 0 20.412 0 19.686V1.314C0 .584.598 0 1.337 0zm1.33 7.875V10.5h2.666V7.875H2.667zm4 0V10.5h2.666V7.875H6.667zm4 0V10.5h2.666V7.875h-2.666zm-8 3.938v2.624h2.666v-2.624H2.667zm4 0v2.624h2.666v-2.624H6.667zm4 0v2.624h2.666v-2.624h-2.666zm-8 3.937v2.625h2.666V15.75H2.667zm4 0v2.625h2.666V15.75H6.667zm4 0v2.625h2.666V15.75h-2.666z"/>
</svg>
