<svg xmlns="http://www.w3.org/2000/svg" xmlns:xlink="http://www.w3.org/1999/xlink" width="878" height="400" viewBox="0 0 878 400">
    <defs>
        <path id="a" d="M0 0h904v400H0z"/>
    </defs>
    <g fill="none" fill-rule="evenodd" transform="translate(-13)">        
        <path fill="#F7F8FB" d="M266.355 145.736c15.035 15.036 15.035 39.412 0 54.448L78.972 387.567c-15.035 15.035-39.412 15.035-54.447 0-15.036-15.035-15.036-39.412 0-54.447l187.383-187.384c15.035-15.035 39.412-15.035 54.447 0zm-76.309 228.286L530.872 33.197c15.035-15.035 31.042-23.405 54.447 0 15.603 15.603 41.06 8.296 76.368-21.92 15.035-15.036 39.412-15.036 54.447 0 10.023 10.023 24.165 14.03 42.426 12.02 15.035-15.035 39.412-15.035 54.447 0 15.036 15.035 15.036 39.412 0 54.447L702.7 188.054c-15.035 15.034-15.035 39.411 0 54.446 15.035 15.035 39.412 15.035 54.447 0l67.882-67.882c15.035-15.035 39.412-15.035 54.447 0 15.036 15.035 15.036 39.412 0 54.447L538.65 569.891c-15.035 15.035-31.042 23.405-54.447 0-15.604-15.604-41.06-8.297-76.368 21.92-15.035 15.035-39.412 15.035-54.447 0-10.023-10.023-24.166-14.03-42.426-12.02-15.036 15.034-39.412 15.034-54.448 0-15.035-15.036-15.035-39.413 0-54.448l110.309-110.309c15.035-15.035 15.035-39.412 0-54.447-15.035-15.035-39.412-15.035-54.447 0l-67.882 67.882c-15.036 15.036-39.413 15.036-54.448 0-15.035-15.035-15.035-39.412 0-54.447z" mask="url(#b)" transform="rotate(180 452 301.544)"/>
    </g>
</svg>
