<svg xmlns="http://www.w3.org/2000/svg" width="428" height="295" viewBox="0 0 428 295">
    <path fill="#F7F8FB" fill-rule="evenodd" d="M123.424 71.066c7.332 7.332 7.332 19.22 0 26.55L32.05 188.993c-7.331 7.331-19.219 7.331-26.55 0-7.332-7.332-7.332-19.219 0-26.55l91.375-91.376c7.331-7.331 19.218-7.331 26.55 0zm-37.21 111.32L252.411 16.189c7.332-7.332 15.137-11.413 26.55 0 7.61 7.609 20.023 4.046 37.24-10.69 7.332-7.33 19.219-7.33 26.55 0 4.888 4.889 11.785 6.843 20.69 5.863 7.331-7.332 19.218-7.332 26.55 0 7.331 7.331 7.331 19.218 0 26.55l-53.79 53.79c-7.332 7.332-7.332 19.22 0 26.551 7.33 7.332 19.218 7.332 26.55 0l33.102-33.102c7.331-7.332 19.218-7.332 26.55 0 7.332 7.332 7.332 19.219 0 26.55L256.205 277.9c-7.332 7.331-15.137 11.413-26.55 0-7.61-7.61-20.022-4.046-37.24 10.689-7.332 7.331-19.219 7.331-26.55 0-4.888-4.888-11.784-6.842-20.69-5.862-7.33 7.332-19.218 7.332-26.55 0-7.331-7.332-7.331-19.219 0-26.55l53.791-53.791c7.332-7.332 7.332-19.219 0-26.55-7.332-7.332-19.219-7.332-26.55 0l-33.102 33.101c-7.332 7.332-19.22 7.332-26.55 0-7.332-7.331-7.332-19.218 0-26.55zm-30.43 31.281c6.443-6.443 16.89-6.443 23.334 0 6.444 6.444 6.444 16.891 0 23.335-6.444 6.443-16.89 6.443-23.334 0-6.444-6.444-6.444-16.891 0-23.335z"/>
</svg>
