<svg xmlns="http://www.w3.org/2000/svg" width="264" height="84" viewBox="0 0 264 84">
    <g fill="none" fill-rule="nonzero">
        <path fill="#FC1D2C" d="M42.24 80.432c-4.536-4.535-4.536-11.894 0-16.428L102.7 3.568c4.536-4.534 11.898-4.534 16.435 0 4.536 4.535 4.536 11.894 0 16.428l-60.46 60.436c-4.61 4.534-11.899 4.534-16.435 0z"/>
        <path fill="#FEDD33" d="M71.689 80.432c-4.536-4.535-4.536-11.894 0-16.428l60.46-60.436c4.536-4.534 11.898-4.534 16.435 0 4.536 4.535 4.536 11.894 0 16.428l-60.46 60.436c-4.536 4.534-11.899 4.534-16.435 0z"/>
        <path fill="#1CB743" d="M101.807 80.432c-4.536-4.535-4.536-11.894 0-16.428l60.46-60.436c4.536-4.534 11.899-4.534 16.435 0 4.536 4.535 4.536 11.894 0 16.428l-60.46 60.436c-4.536 4.534-11.898 4.534-16.435 0z"/>
        <path fill="#24C2F3" d="M130.736 80.432c-4.537-4.535-4.537-11.894 0-16.428l60.46-60.436c4.536-4.534 11.898-4.534 16.434 0 4.537 4.535 4.537 11.894 0 16.428l-60.46 60.436c-4.61 4.534-11.898 4.534-16.434 0z"/>
        <path fill="#FFF" d="M263.628 41.034l-4.462.446c-.818.074-1.785.148-2.528.223v-3.866h5.8V22.673h-5.875V9.366l-18.666 6.914v6.393h-1.264v-.744h-.967a10.037 10.037 0 0 0 1.265-4.906v-.074c-.149-5.576-4.165-9.59-9.668-9.59-2.751 0-5.28 1.041-7.065 2.974-1.71 1.784-2.603 4.163-2.528 6.69 0 1.784.446 3.42 1.264 4.906h-32.498v6.17c-3.346-4.237-8.552-6.764-14.724-6.764-8.478 0-15.022 4.385-17.774 11.224-.967-2.824-2.454-4.906-3.718-6.244-2.975-3.196-7.065-4.98-11.304-4.98-1.636 0-3.198.223-4.61.594h-17.18l.224 5.427c-2.529-3.791-6.619-6.021-11.75-6.021-2.975 0-5.503.669-7.957 2.007-.149.074-.298.148-.446.297-2.231-1.487-4.983-2.304-7.958-2.304-1.561 0-3.049.223-4.462.594H67.6l.297 5.575c0 .595.075 1.264.075 1.933-3.272-5.055-8.924-8.177-15.692-8.177-3.495 0-6.693.744-9.444 2.156l1.487-1.561h-23.5l-1.04 1.19V5.946L.594 13.752v44.974H19.78v-3.048l1.413 3.048H43.95l-.818-1.413c2.603 1.264 5.578 2.007 8.85 2.007 6.172 0 12.642-2.75 16.286-8.474v7.88h49.974l.372 13.826 17.922-6.764v-6.542c.52.074 1.041.074 1.562.074 6.544 0 13.163-3.94 15.914-11.447 2.678 6.913 9.222 11.447 17.476 11.447 5.132 0 10.486-1.858 14.204-5.798v5.204h51.016V37.912h1.264v6.02c0 5.13 1.19 8.847 3.718 11.449 2.38 2.453 6.024 3.865 9.965 3.865 2.677 0 7.809-.966 8.85-1.19l3.346-.668-.223-16.354zM30.341 36.796l4.165-4.46c-1.041 2.453-1.636 5.204-1.636 8.252v.446l-2.529-4.238zm160.036 4.089v-.818-.966h1.785l-1.785 1.784zm23.128.669l4.388-4.758v4.758h-4.388z"/>
        <path fill="#1F191A" d="M23.648 54.637l-5.205-11.076-2.9 2.825v8.251H4.536V16.503l11.007-4.46v21.854l6.99-7.88h12.27l-9.518 10.26 11.229 18.36zM51.759 55.232c-8.701 0-14.799-6.021-14.799-14.719 0-8.994 6.098-15.09 15.17-15.09 8.627 0 14.576 6.021 14.576 14.57.15 10.556-7.436 15.239-14.947 15.239zm.223-21.483c-3.867 0-4.09 5.5-4.09 6.541 0 3.197 1.041 6.542 4.09 6.542 2.38 0 3.941-2.602 3.941-6.542 0-3.048-1.04-6.541-3.941-6.541zM105.154 54.637V39.175c0-4.683-2.008-4.683-2.677-4.683-1.413 0-2.306 1.04-2.678 2.007-.148.372-.297 1.115-.297 1.636v16.502H88.57V38.73c0-1.933-.446-4.311-2.603-4.311-1.784 0-2.528 1.635-2.751 2.081-.149.446-.223.892-.223 1.636v16.428H72.135v-19.03c0-3.271-.149-6.021-.223-8.252l-.074-1.338h9.742l.223 1.933c2.008-1.635 4.536-2.527 7.436-2.527 3.273 0 6.024 1.338 7.735 3.568.818-.818 1.71-1.487 2.677-2.082 1.71-.966 3.644-1.486 5.875-1.486 6.618 0 10.56 4.683 10.56 12.563v16.65h-10.932v.075zM122.332 66.68l-.743-30.627c0-3.494-.149-6.467-.223-8.697l-.075-1.338h9.52l.222 2.081c2.008-1.71 4.685-2.602 7.809-2.602 6.023 0 12.121 4.98 12.121 14.57 0 10.482-6.767 15.24-13.088 15.24-2.157 0-4.09-.521-5.652-1.488v9.218l-9.89 3.643zm13.684-32.337c-1.71 0-3.198 1.338-3.644 3.122-.075.372-.149.744-.149 1.19v3.568c0 .52.074 1.04.149 1.412.446 1.71 1.859 2.825 3.495 2.825 4.016 0 4.313-4.683 4.313-6.095.075-1.413-.297-6.022-4.164-6.022zM171.265 55.232c-8.7 0-14.799-6.021-14.799-14.719 0-8.994 6.099-15.09 15.171-15.09 8.627 0 14.576 6.021 14.576 14.57.074 10.556-7.511 15.239-14.948 15.239zm.223-21.483c-3.867 0-4.09 5.5-4.09 6.541 0 3.197 1.041 6.542 4.09 6.542 2.38 0 3.942-2.602 3.942-6.542-.075-3.048-1.041-6.541-3.942-6.541zM189.56 54.637v-7.062l12.419-12.637h-11.453v-8.92h25.657v6.541l-12.048 13.083h12.568v8.995zM221.983 26.018h10.634v28.619h-10.634zM227.189 22.598c-1.562 0-3.05-.594-4.016-1.71a5.204 5.204 0 0 1-1.413-3.865c0-1.487.446-2.9 1.413-3.865 1.041-1.116 2.454-1.71 4.09-1.71 3.198 0 5.503 2.304 5.578 5.575.074 3.27-2.306 5.575-5.652 5.575zM251.58 55.158c-2.825 0-5.354-.967-6.99-2.602-1.71-1.784-2.602-4.61-2.602-8.623v-10.11h-4.983v-7.062h4.983v-7.657l10.485-3.865V26.76h5.8v6.988h-5.8v8.92c0 3.345.818 3.345 1.934 3.345.743 0 5.131-.446 5.131-.446l.074 8.474s-5.577 1.116-8.031 1.116z"/>
    </g>
</svg>
