<svg xmlns="http://www.w3.org/2000/svg" width="16" height="16" viewBox="0 0 16 16">
    <path fill="#F00" fill-rule="nonzero" d="M10.255 8.218a.352.352 0 0 1 0-.509l5.454-5.454a.786.786 0 0 0 .218-.51.786.786 0 0 0-.218-.509L14.691.218A.786.786 0 0 0 14.18 0a.66.66 0 0 0-.508.218L8.218 5.673a.352.352 0 0 1-.509 0L2.255.218A.786.786 0 0 0 1.745 0a.786.786 0 0 0-.509.218L.218 1.236a.786.786 0 0 0-.218.51c0 .145.073.363.218.509l5.455 5.454a.352.352 0 0 1 0 .51L.218 13.672a.786.786 0 0 0-.218.509c0 .145.073.363.218.509l1.018 1.018a.786.786 0 0 0 .51.218.786.786 0 0 0 .509-.218l5.454-5.454a.352.352 0 0 1 .51 0l5.454 5.454a.786.786 0 0 0 .509.218.786.786 0 0 0 .509-.218l1.018-1.018a.786.786 0 0 0 .218-.51.786.786 0 0 0-.218-.508l-5.454-5.455z"/>
</svg>
