<svg xmlns="http://www.w3.org/2000/svg" width="24" height="24" viewBox="0 0 24 24">
    <g fill="none" fill-rule="evenodd">
        <path d="M-1 0h24v24H-1z"/>
        <path fill="#003379" d="M12.508 15.649l2.746-2.875H.751a.706.706 0 0 1-.528-.233.773.773 0 0 1-.223-.553.762.762 0 0 1 .751-.787h14.456l-2.699-2.85a.728.728 0 0 1-.234-.552c0-.222.078-.406.234-.553A.656.656 0 0 1 13.025 7c.203 0 .383.082.54.246L18 12.012l-4.435 4.767a1.06 1.06 0 0 1-.259.16.7.7 0 0 1-.281.061.7.7 0 0 1-.282-.061.795.795 0 0 1-.235-1.29zM22.511 0c.419 0 .771.145 1.058.434.287.289.431.644.431 1.066v21c0 .422-.144.777-.43 1.066-.288.29-.64.434-1.06.434H10.015v-1.5h11.59a.87.87 0 0 0 .639-.27.883.883 0 0 0 .268-.644l-.024-19.172c0-.25-.089-.465-.267-.644a.87.87 0 0 0-.64-.27H10.014s-.031-1.5 0-1.5H22.51z"/>
    </g>
</svg>
