<svg xmlns="http://www.w3.org/2000/svg" width="20" height="16" viewBox="0 0 20 16">
    <g fill="#579FFF" fill-rule="nonzero">
        <path d="M19.874 5.732a.651.651 0 0 0-.89-.238l-1.792 1.035a8.801 8.801 0 0 0-2.297-2.297L15.93 2.44a.65.65 0 0 0-1.127-.651l-1.034 1.79a8.664 8.664 0 0 0-3.138-.841V.67a.65.65 0 0 0-1.302 0v2.067a8.666 8.666 0 0 0-3.138.841L5.158 1.79a.65.65 0 1 0-1.128.651l1.035 1.792A8.802 8.802 0 0 0 2.77 6.53L.976 5.494a.65.65 0 1 0-.65 1.127l1.79 1.034a8.678 8.678 0 0 0-.866 3.789.65.65 0 0 0 1.302 0c0-4.096 3.332-7.429 7.428-7.429 4.097 0 7.43 3.333 7.43 7.429a.65.65 0 0 0 1.3 0 8.678 8.678 0 0 0-.865-3.79l1.79-1.033a.651.651 0 0 0 .239-.889z"/>
        <path d="M9.98 7.683a3.765 3.765 0 0 0-3.76 3.76 3.765 3.765 0 0 0 3.76 3.762 3.765 3.765 0 0 0 3.761-3.761 3.765 3.765 0 0 0-3.76-3.76zm0 6.22a2.462 2.462 0 0 1-2.458-2.46A2.462 2.462 0 0 1 9.98 8.986a2.462 2.462 0 0 1 2.46 2.459 2.462 2.462 0 0 1-2.46 2.459z"/>
    </g>
</svg>
