<svg xmlns="http://www.w3.org/2000/svg" width="20" height="13" viewBox="0 0 20 13">
    <path fill="#579FFF" fill-rule="nonzero" d="M19.874 6.383a.651.651 0 0 1-.89.238l-1.792-1.035a8.801 8.801 0 0 1-2.297 2.297l1.035 1.792a.65.65 0 0 1-1.127.651l-1.034-1.79a8.664 8.664 0 0 1-3.138.841v2.067a.65.65 0 0 1-1.302 0V9.377a8.666 8.666 0 0 1-3.138-.841l-1.033 1.79a.65.65 0 1 1-1.128-.65l1.035-1.793A8.802 8.802 0 0 1 2.77 5.586L.976 6.621a.65.65 0 1 1-.65-1.127l1.79-1.034A8.678 8.678 0 0 1 1.25.671a.65.65 0 0 1 1.302 0C2.552 4.767 5.884 8.1 9.98 8.1c4.097 0 7.43-3.333 7.43-7.429a.65.65 0 0 1 1.3 0 8.678 8.678 0 0 1-.865 3.79l1.79 1.033c.312.18.418.578.239.889z"/>
</svg>
