<svg xmlns="http://www.w3.org/2000/svg" width="25" height="25" viewBox="0 0 25 25">
    <g fill="#579fff" fill-rule="nonzero">
        <path d="M9.383 14H9v2h.383a.533.533 0 0 0 .45-.222.929.929 0 0 0 .167-.57v-.417a.917.917 0 0 0-.168-.565.527.527 0 0 0-.45-.226z"/>
        <path d="M16 13H4v5h10.192L16 13zm-8.178 2.662c-.163.15-.384.22-.668.22h-.557v.99h-.432v-2.614h.989c.284 0 .51.075.668.224.162.15.243.344.243.587 0 .25-.081.444-.243.593zm2.722.105c0 .329-.103.594-.306.8-.207.204-.472.309-.8.309h-.853v-2.614h.852c.329 0 .594.105.8.31.208.205.307.474.307.8v.395zm2.236-1.158h-1.221v.8h1.04v.35h-1.04v1.117h-.432v-2.614h1.653v.347z"/>
        <path d="M7.535 14H7v1h.535c.153 0 .27-.049.348-.142A.533.533 0 0 0 8 14.502a.552.552 0 0 0-.117-.36c-.078-.093-.195-.142-.348-.142z"/>
        <path d="M15.595 2H6.493A.502.502 0 0 0 6 2.505v9.759h.986V3.01h8.61v3.503h3.418V19.99H6.986v-1.892H6v2.398c0 .277.222.505.493.505h13.014c.27 0 .493-.228.493-.505V6.515L15.595 2z"/>
        <path d="M8 8h9v1H8zM8 10h8v1H8z"/>
    </g>
</svg>
