<svg xmlns="http://www.w3.org/2000/svg" width="14" height="14" viewBox="0 0 14 14">
    <path fill="none" fill-rule="nonzero" stroke="#0F77FF" d="M12.946 5.543a.622.622 0 0 0-.499-.442l-3.39-.514L7.543 1.38a.612.612 0 0 0-.554-.36.612.612 0 0 0-.553.36L4.919 4.587l-3.39.514a.622.622 0 0 0-.499.442.664.664 0 0 0 .158.662L3.639 8.7l-.579 3.523a.665.665 0 0 0 .134.524c.184.23.505.3.762.158l3.032-1.664 3.033 1.665a.591.591 0 0 0 .761-.16.665.665 0 0 0 .134-.523L10.338 8.7l2.451-2.495a.664.664 0 0 0 .157-.662z"/>
</svg>
