<svg xmlns="http://www.w3.org/2000/svg" width="12" height="12" viewBox="0 0 12 12">
    <path fill="#0F77FF" fill-rule="nonzero" d="M11.946 4.543a.622.622 0 0 0-.499-.442l-3.39-.514L6.543.38a.612.612 0 0 0-.554-.36.612.612 0 0 0-.553.36L3.919 3.587.529 4.1a.622.622 0 0 0-.499.442.664.664 0 0 0 .158.662L2.639 7.7l-.579 3.523a.665.665 0 0 0 .134.524c.184.23.505.3.762.158l3.032-1.664 3.033 1.665a.591.591 0 0 0 .761-.16.665.665 0 0 0 .134-.523L9.338 7.7l2.451-2.495a.664.664 0 0 0 .157-.662z"/>
</svg>
