<svg xmlns="http://www.w3.org/2000/svg" width="94" height="115" viewBox="0 0 94 115">
    <g fill="#0F77FF" fill-rule="evenodd">
        <path fill-rule="nonzero" stroke="#FFF" stroke-linecap="round" stroke-linejoin="round" stroke-width=".2" d="M42.191 13.443l.058.393-.058.168-.057.112-.116.112h-.174l-.637-.056-.174.056-.116.112-.058.224.058.28.405.954.058.336.058.392-.058.393-.579 2.746-.058.449-.058 3.026.116 1.458.058.224.058.112.174.112h.347l.174-.112.29-.224.116-.112h.173l.406.224.348.28.405.112H43.814l.29.056.289.168.811.73.174.223.116.28.116.505.058.392v.393l-.174.84-.174.841-.058.225v.392l.058.336.058.168.232.169.29.168 1.737.616.29.168 1.043.785.29.28.115.225v.112l-.173 1.065-.058.392-.232.56-.29.673-.463.785-.116.28v.224l.116.112.173.113h.348l.927-.28.232.055.29.112.347.337.174.224.232.28.115.112.174.056.29-.056.174-.112.174-.112.231-.504.116-.056.174-.056 1.506.392.406.056.232-.056.463-.448.348-.113h.405l1.738.113h.348l.347-.113.174-.056.348-.28.29-.168h.173l.232.056.116.168.116.28.29.393.231.28.058.168-.058.168-.116.393v.168l.116.168.174.112.463.056.464.056.232.056.116.112v.673l.115.168.754.617.405.448.232.28.116.28.116.28.173.674.058.504v.392l-.058.225-.115.336-.232.28-.116.112-.116.056-.348-.056-.115.056-.116.168-.058.393-.058.168.058.168.174.28.927.897.173.112.174.112.637-.056.232.056.174.113.116.224.058.224-.058.673.116.28.174.28.115.112.174.056.232.056h.348l.29.112.289.225.174.056.231.112.348-.112.174-.056.174-.113h.463l.637.057 2.492.616.347-.28.348-.393.232-.168.29-.056 1.969.449h.174l.29-.112.29-.225.115-.056.174-.056.463.056h.174l.116-.112.116-.112.347-.392.232-.168.174-.056.348-.057.173-.056.116-.112.174-.28.232-.224.29-.168.347-.056 1.275.112h.231l.116-.056.232-.28.405-.561.116-.112.29-.112.116-.112v-.617l.058-.168.174-.224.058-.168.058-.505.057-.168.29-.168.637-.224.696-.056.29.112.347.224.927.897.405.28 1.16 1.513.289.337.29.224.173.056.406.056h1.332l.174.168.174.28.058.673-.058.673-.058.336-.116.112-.174.112-.695-.112-.174.056-.116.056-.347.505-.174.28-.058.168v.224l.116.28.753.617.116.112.116.168.058.337v.448l.058.336.116.28.173.169.232.168.464.224.29.056h.23l.406-.056.348.056.174.112.058.112v.225l-.058.168-.464.448-.173.224.173.28.174.225 1.97 1.12-.811 2.13-.521.73-.116.168-.058.112.058.224.173.28.058.168-.173.393-.87 1.233-.405-.168-.29-.169-.29-.168-.231-.112h-.579l-.29.112-.174.112-.116.169-.347.392-.174.28-.116.224-.058.393v.336l.116.224.463.617.116.28v.336l-.058.169-.173.336-.232.28-.638.673-.405.168-.406.056h-.231l-.29-.168-.174.056-.116.28-.173.449-.174.336-.174.168-1.043.785-.232.28-.173.224.057.168.232.617.058.336v.393l.174.672.174.617.116.28-.058.392-.174.169-.29.112-1.216.392-.174.056-.116.112-.116.224-.058.112.116.673v.785l-.058.392-.174.336-.29.673-.81 1.065-.116.28.058.505-.116.392-.058.112-.58.56-.347.561-.348.673-.116.224-.29.112-3.012-.56-.174-.112-.058-.112-.058-.169.058-1.009-.058-.28-.115-.168-.174-.056h-.174l-.116.112-.116.224-.174.897-.058.168-.173.28-.174.113-.232.056-.405.056-.232-.056-.174-.112-.29-.225h-.116l-.173.056-.174.28-.116.225-.058.448-.058.168-.174.113-.173-.113-.232-.336-.232-.28-.174-.28v-.393l-.116-.28-.347-.336-.174-.28-.058-.169-.058-.504-.116-.112-.116-.056-.347-.056-.232.056-.58.168-.347.056h-1.159l-.347.056-.348.112-2.491 1.682-1.1.112-.175.112-.231.168-.232.28-.29.617-.405.504-.116.168v.112l.058.169.116.112.405.28.058.112-.058.336-.347.73-.116.223v.393l.058.112.29.224.057.112.058.168v.168l-.29 1.738-.057.168-.464.729-.058.168v.28l.174.449v.168l-.058.392-.348.617-.405 1.065-.116.168-.348.336-.173.224-.058.169v.56l.058.336.115.112.116.056.406.113.116.112.116.112.058.168v.336l-.058.56-.058.337-.174.168-.985.673-.29.28-.173.224-.522 1.29-.174.224-.173.28-1.39.897-.175.168-.174.28-.81.729-.348.336-.29.449-.116.112-.58.448-.347.392-.753 1.346-.116.392V105.2l-.116.224-.231.224-.406-.112-.232-.112-.115-.168-.174-.28-.116-.056h-.232l-.29.224-.347.336-.174.056-.348.056-.521-.224-.174-.056-.29.168-.173.168-.348.393-.116.112-1.043.28-.579.392h-.348l-.173-.112-.116-.168-.637-1.065-.232-.224H45.84l-.463.168-.406-.056-.231-.056-.232-.224-.116-.056h-.174l-.116.168-.405.84-.174.28-.116.057-.174.056-.927-.504-.116-.056h-.173l-.348.336-.174.112-1.043.336h-.231l-.232-.224-.29-.448-.347-.337-.29-.168-.174-.056h-.232l-.231.112-.348.168-.116.225-.116.168-.116.392V107.442l-.057.168-.174.56-.638 2.579-.057.168-.174.112h-.29l-.29-.168-.173-.224v-.561l-.058-.112-.232-.168-5.62-1.12-.174-.113-.115-.112-.058-.112v-.168l.058-.225.173-.28.348-.56.058-.168v-.113l-.116-.112-.695-.28h-.174l-.174.056-.347.392-.232.28-.464.225-.231.224-.116.168v.112l.116.225.173.392.116.28v.168l-.173.056-.29-.056-.116-.056-.348-.168-.173-.056-.927-.056-.232-.056-.232-.056-.232.112-.231.28-.348.505-.232.112-.29.056h-1.1l-.29.112-.695.504-.406.169-.173.28-.174.504-.058.225-.29.448-.231.224-.464.449-.174.224v.168l-.058.168.116.505-.116.168-.231.112-.811-.056-1.912.224-.522-.224-.637-.449-.232-.28-.116-.224-.058-.336.058-.169.174-.112.232-.112.058-.168-.29-.28-1.216-.336-.29-.673-.348-.168-.521.056h-.406l-.231-.112-.116-.112-.058-.225-.232-.448-.58-.84-.405-.954-.174-.168-.116-.168-.115-.056-.927-.112-.348-.112-.463-.224-.174-.225-.116-.168v-.392l-.116-.28-.116-.337-.463-.897-.058-.448.058-.336.116-.224.231-.225 1.565-1.009.115-.112.174-.336v-1.009l-.116-.392-.695-1.458-.116-.28v-.168l.058-.168.174-.168.232-.112.231-.169.116-.224.058-.56v-.337l-.058-.224-.116-.168-1.274-.617-.174-.112-.232-.224-.231-.336-.116-.28-.058-.225-.058-.504v-.393l.058-.392.058-.168.347-.617.116-.448.058-.336-.058-.168-.058-.169-.29-.168-.173-.112-1.622-.224.116-.729.29-.224.463-.224.116-.224.115-.225.058-.224v-.672l-.058-.169-.058-.112h-.347l-.753.112h-.406l-.405-.056v-.224l.231-.28.174-.28.232-.449.174-.56.116-.617.058-.336-.058-.28-.174-.337-.058-.224-.116-.392.058-.224.058-.169.29-.168.115-.056h.174l.406.056.231-.112.174-.168.174-.336.174-.112.174-.057.29.057.289-.057 1.159-.84 1.043-.449.231-.168.348-.392.174-.056.463-.168.174-.113.232-.224.521-.672.232-.505.174-.224.116-.112.869-.449.231-.168.753-.784.174-.28.058-.28-.058-.337-1.854-2.915-.116-.392v-.337l.116-.168.174-.224.116-.28-.463-1.794-.058-.448v-.28l.058-.225.115-.168.174-.056 1.043-.28.232-.112.231-.225.232-.504v-.224l-.058-.224-.174-.28v-.954l-.115-.224-.116-.112-.464-.28-.231-.168-.058-.168-.116-.28-.058-.169.058-1.065-.058-.56.174-1.906v-.448l-.116-.225-.406-.168-.116-.056-.231-.224-.29-.505-.348-.896-.231-.28-.116-.113-.406-.056h-.405l-.116-.112-.174-.28-.116-.729-.405-1.065-.174-1.345-.116-.224-.348-.505-.405-.504-.232-.224-.174-.056-.174-.057-1.39.057h-.174l-1.216.504-.174.056h-.174l-.232-.168-.174-.336-.058-.225.116-.168.696-.056.173-.056.174-.112.174-.336v-.168l-.116-.113-.521-.28-.116-.168v-.168l.058-.168.116-.056h.173l.58.112h.174l.115-.056.116-.112.174-.337.29-.953.058-.392-.058-.112-.174-.28-.348-.168-.173-.169-.116-.392v-.224l.116-.112.347-.056.174-.056.174-.28.29-.897.173-.561-.058-.168-.058-.168-.579-.393-.232-.28-.174-.28v-.168L7.72 45l.29-.672.348-.505.869-1.345.29-.672.231-.28.985-.505.174-.168.174-.225.173-.448.058-.28v-.224l-.463-1.682-.116-.729-.116-.448-.116-.168-.231-.224-.348-.112-.406-.057-1.216.113h-.116l-.174-.113-.058-.224v-.168l.637-3.475-.058-.336-.057-.225-.058-.112-.754-.84-1.796-2.747-.115-.112-.174-.056h-.174l-.174-.112-.174-.28-.173-.673.058-.28.115-.169h1.043l.174.056.174.057.405.336.116.056h.174l.116-.336v-.337l-.116-1.12v-.337l.058-.56.058-.225.174-.336.405-.617.174-.336V22.3l-.058-.112-.174-.337-.231-.224-.116-.112-.29-.168-.811-.224-.116-.113-.174-.112-.058-.168-.058-.336-.115-.28-.116-.169-.174-.224-.985-.897-.58-.392-.347-.112H3.26l-.057.112-.696 1.065-.058.112-.116.056-.115-.224-.116-.336-.174-.673-.348-2.578L1 13.724V13.5l.174-.057.405-.056.348-.056.58-.336.984-.729.406-.392.405-.504.348-.673.058-.392.058-.561.116-1.85-.058-.392V7.39l-.116-.168-.116.056-.29.168-.116.056-.173-.056-.174-.224-.232-.449.87-.728.752-.225 1.39.561h.638l.463-.84.464-1.178.347-.616.406-.225.869-.056.695-.336.522-.505.463-.672.637-.617.638-.224.753-.112.695.056.521.392.522.897.29.785.405.504 2.955.505.58-.168.289-.337.521-.952.406-.28.347.055.522.337.405-.056 1.97-1.01.695-.167 4.52-.113.926.225.87.616 1.216 1.626.463.448 1.622.785.406.392.174.336.116.337v.897l-.058.392-.232 1.009-.116.056.232.56.985 1.234.405.336.522.224h.927l.463.112.521.393.696 1.065.521.168.406-.056.463.112.406.224.347.392.232.505.348-.112.173-.28zm8.897 32.705l-.232-2.69-1.39-.73L47.728 42l-.695.785.058 1.401-.696.617-1.042.392-.522 1.345-3.07-.28-.406.448.29 1.121-.811-.448-.638-1.009-.869-.84-.463-1.682-.753-.168-.174-1.402h-3.186v1.233l-2.028.225.695 1.177-.174.953-.579-.897-.58.336.29.785v.897l-.637.56-.695.617-.174.84.174.953-.174.897-.406.449.058.784.058.841-.347.729-.058.84L30 55.734l.348.616.347-.504.522.112.463-1.57 1.39.393.696-.393.521.337.406 1.905.869 1.01.985.84.753 1.29-.29.952.232 1.121h.58l.52-.112.232 1.121.116.897.58.28.057.785.58-.224.869.728-.348 2.13h.811l.174 2.355.87.28.463 1.513.115 2.242 1.97-.953-.29-.784.348-.505-.695-1.737-.232-1.29.637-.056.464-1.569-.58-1.794-.926-2.41.347-.392-.405-.785 1.158-.392.174.672.695-.168.927.336.638-.224-.058-1.457.231-.84.985 1.008 1.217-.168-.058-1.962h1.275l.521-1.009-.927-.672-.058-.841-1.796-2.69-.058-1.794.348-.56-.58-.898.058-.728.754-1.121.927-.56 1.216-1.346z"/>
        <path d="M28 40h27v37H28z"/>
    </g>
</svg>
