<svg xmlns="http://www.w3.org/2000/svg" width="116" height="114" viewBox="0 0 116 114">
    <g fill="none" fill-rule="evenodd" transform="translate(1 1)">
        <path fill="#0F77FF" d="M51 52.333L74.236 41l9.006 18.465-23.236 11.333zM61 73.333L84.236 62l9.006 18.465-23.236 11.333zM76 38.68L87.644 33l19.366 39.706-11.645 5.68z"/>
        <circle cx="16" cy="9" r="9" fill="#0F77FF" stroke="#0F77FF" stroke-width="2"/>
        <path fill="#0F77FF" stroke="#0F77FF" stroke-width="2" d="M6.323 30.251v30.574c.921 2.5 1.756 4.149 2.506 4.946 1.124 1.196 4.621 4.568.057 14.845a504.872 504.872 0 0 0-8.338 19.861c-1.14 3.729-.501 6.194 1.915 7.397 2.416 1.203 4.903 1.203 7.459 0 1.44-2.415 2.268-4.503 2.487-6.265.22-1.762 3.58-8.76 10.085-20.993 1.197-3.685 1.795-5.995 1.795-6.93 0-1.403 9.843 11.361 11.445 21.937 1.603 10.576 1.8 11.683 7.3 12.251 3.668.378 5.404-1.958 5.208-7.01-2.154-10.878-4.547-18.537-7.178-22.975C37.116 71.23 28.259 60.49 25.07 58.905V45.338c8.531 3.407 15.234 4.29 20.11 2.65l22.902 45.72c-3.965 4.218-4.792 8.41-2.48 12.574 2.31 4.164 6.33 5.837 12.055 5.018 4.314-1.39 6.554-4.62 6.72-9.691-.453-3.902-1.559-6.323-3.317-7.264l32.694-15.135-1.276-3.566-34.82 16.445c-2.712-.534-4.901-.534-6.569 0L47.534 46.653c1.63-3.238 1.461-5.756-.506-7.554-1.34-1.492-3.216-2.112-5.625-1.86-3.613.376-16.358-2.615-17.483-6.022-.103-.31.154-1.167.062-1.693-.52-2.973-1.683-4.895-2.817-5.852-1.645-1.388-4.17-3.003-6.643-2.613-1.734.274-3.715 1.247-5.528 2.539-1.208.861-2.098 3.08-2.67 6.653z"/>
        <circle cx="71.5" cy="101.5" r="3.5" fill="#FFF"/>
    </g>
</svg>
