<svg xmlns="http://www.w3.org/2000/svg" width="22" height="22" viewBox="0 0 22 22">
    <g fill="none" fill-rule="evenodd">
        <path fill="#768592" fill-rule="nonzero" stroke="#768592" stroke-width=".5" d="M20.902 20.431l-5.449-5.449a8.3 8.3 0 0 0 2.214-5.649C17.667 4.738 13.928 1 9.333 1S1 4.738 1 9.333c0 4.595 3.738 8.334 8.333 8.334a8.3 8.3 0 0 0 5.649-2.214l5.449 5.45a.332.332 0 0 0 .471 0 .333.333 0 0 0 0-.472zM9.333 17c-4.227 0-7.666-3.44-7.666-7.667s3.439-7.666 7.666-7.666C13.561 1.667 17 5.106 17 9.333 17 13.561 13.56 17 9.333 17z"/>
        <path d="M-1-1h24v24H-1z" opacity=".534"/>
    </g>
</svg>
