<svg xmlns="http://www.w3.org/2000/svg" width="32" height="32" viewBox="0 0 32 32">
    <g fill="none" fill-rule="nonzero">
        <path fill="#FFCF18" d="M31.857 12.114c-.194-.632-.704-1.083-1.331-1.178l-9.039-1.371-4.042-8.553c-.28-.592-.846-.96-1.476-.96s-1.196.368-1.476.96L10.45 9.565l-9.04 1.37c-.626.096-1.136.547-1.33 1.179a1.77 1.77 0 0 0 .42 1.765l6.537 6.654-1.544 9.395c-.082.502.048 1.01.357 1.397.49.612 1.347.798 2.03.423l8.088-4.44 8.087 4.44c.241.132.499.2.765.2.487 0 .948-.227 1.265-.623.31-.386.44-.895.358-1.397L24.9 20.533l6.538-6.654a1.77 1.77 0 0 0 .42-1.765z"/>
        <path fill="#FFF" d="M13 17h5.995v1.199H13z"/>
    </g>
</svg>
