<svg xmlns="http://www.w3.org/2000/svg" width="32" height="32" viewBox="0 0 32 32">
    <path fill="#003379" fill-rule="nonzero" d="M31.857 12.114c-.194-.632-.704-1.083-1.331-1.178l-9.039-1.371-4.042-8.553c-.28-.592-.846-.96-1.476-.96s-1.196.368-1.476.96L10.45 9.565l-9.04 1.37c-.626.096-1.136.547-1.33 1.179a1.77 1.77 0 0 0 .42 1.765l6.537 6.654-1.544 9.395c-.082.502.048 1.01.357 1.397.49.612 1.347.798 2.03.423l8.088-4.44 8.087 4.44c.241.132.499.2.765.2.487 0 .948-.227 1.265-.623.31-.386.44-.895.358-1.397L24.9 20.533l6.538-6.654a1.77 1.77 0 0 0 .42-1.765zm-1.16.961l-6.74 6.86a.578.578 0 0 0-.154.496l1.591 9.687a.598.598 0 0 1-.122.486.572.572 0 0 1-.723.152l-8.334-4.574a.511.511 0 0 0-.493 0L7.39 30.756a.57.57 0 0 1-.723-.152.598.598 0 0 1-.123-.486l1.591-9.687a.578.578 0 0 0-.154-.497l-6.74-6.859a.611.611 0 0 1-.147-.617.578.578 0 0 1 .471-.415l9.315-1.413a.535.535 0 0 0 .4-.305l4.167-8.815c.2-.424.845-.424 1.045 0l4.167 8.815a.535.535 0 0 0 .4.305l9.315 1.413a.578.578 0 0 1 .471.415.61.61 0 0 1-.147.617z"/>
</svg>
