<svg xmlns="http://www.w3.org/2000/svg" width="24" height="24" viewBox="0 0 24 24">
    <path fill="#003379" fill-rule="nonzero" d="M19.367 17.175c.996-.011 1.868-.708 2.123-1.708l2.458-9.482a.582.582 0 0 0-.391-.708c-.047-.01-.094-.021-.141-.021H4.93L3.673.445a.557.557 0 0 0-.532-.427H0v1.151h2.703l1.215 4.703a.414.414 0 0 0 0 .113L6.423 15.5c.015.076.041.157.067.232l.846 3.19a2.68 2.68 0 0 0-1.367 2.356c0 1.476 1.153 2.67 2.577 2.67s2.577-1.194 2.577-2.67a2.753 2.753 0 0 0-.464-1.535h6.558c-.292.433-.47.962-.47 1.535 0 1.476 1.154 2.67 2.578 2.67 1.425 0 2.578-1.194 2.578-2.67 0-.697-.256-1.33-.679-1.805a2.468 2.468 0 0 0-1.867-.881H8.447l-.391-1.487c.167.044.339.07.511.07h10.8zm-.037 2.567c.82 0 1.482.687 1.482 1.535 0 .849-.662 1.535-1.482 1.535-.819 0-1.481-.686-1.481-1.535 0-.848.662-1.535 1.481-1.535zm-10.784 0c.82 0 1.477.692 1.477 1.535 0 .849-.663 1.535-1.482 1.535-.82 0-1.477-.686-1.477-1.535 0-.848.663-1.535 1.482-1.535zm-.991-4.448l-1.247-4.725-1.111-4.151H22.67l-2.26 8.79a1.123 1.123 0 0 1-1.059.864H8.557a1.132 1.132 0 0 1-1.002-.778z"/>
</svg>
