<svg xmlns="http://www.w3.org/2000/svg" xmlns:xlink="http://www.w3.org/1999/xlink" width="213" height="174" viewBox="0 0 213 174">
    <defs>
        <path id="a" d="M0 0h272v176H0z"/>
        <linearGradient id="c" x1="50%" x2="50%" y1="100%" y2="0%">
            <stop offset="0%" stop-color="#0F77FF"/>
            <stop offset="100%" stop-color="#579FFF"/>
        </linearGradient>
        <linearGradient id="e" x1="85.275%" x2="43.98%" y1="48.051%" y2="48.051%">
            <stop offset="0%" stop-color="#FDE2CF"/>
            <stop offset="100%" stop-color="#FCECDB"/>
        </linearGradient>
        <path id="d" d="M66.536 124.37c-11.694-.25-22.638-3.543-32.074-9.118 1.146-4.957 2.08-10.305 2.188-14.868.296-12.543-12.134-13.657-21.285-22.57C7.2 69.861-1.86 67.65.577 64.383c4.951-6.633 15.877-.346 22.393 3.616 2.88 1.75-3.105-9.214-5.533-22.204C14.98 32.625 4.927 11.769 6.682 9.117c3.045-4.599 6.943-1.082 6.943-1.082S9.58 2.181 11.548 1.252C18.852-2.2 21.972 6.227 21.972 6.227s5.197-3.056 8.132 3.301c7.9 17.123 4.37 8.056 8.252 7.343 8.45-1.552 12.712 21.015 19.63 31.458 7.334 11.084 9.49 25.495 11.277 33.268 1.785 7.772-1.676 12.852-2.78 21.245-.654 4.98-.324 14.558.053 21.527z"/>
        <linearGradient id="f" x1="58.196%" x2="19.653%" y1="-4.26%" y2="113.316%">
            <stop offset="0%" stop-color="#FDE2CF"/>
            <stop offset="100%" stop-color="#F3CEBB"/>
        </linearGradient>
        <linearGradient id="i" x1="4.383%" x2="64.628%" y1="97.785%" y2="27.404%">
            <stop offset="0%" stop-color="#F4CEBC"/>
            <stop offset="100%" stop-color="#FCECDB" stop-opacity="0"/>
        </linearGradient>
        <path id="h" d="M3.604 105.277C2.83 100.44.724 92.265.11 81.213-.504 70.161 4.442 55.15 6.1 48.126c1.657-7.023.983-33.474 4.991-33.588 7.578-.216 2.706 29.4 4.992 29.578 2.286.177 4.008-11.66 4.992-20.053.983-8.392-2.277-19.446 2.865-19.722 7.108-.38 5.037 18.353 5.62 18.218.585-.134.959-18.9 4.493-21.556 7.108-5.34 5.99 20.052 5.99 20.052-.08.007-.484-10.42 2.716-10.822 7.317-.92 6.743 17.197 5.925 32.952-.814 15.593-6.26 31.978-3.65 31.511 4.124-.736 13.743-11.34 18.97-7.018C69.23 72 60.368 75.969 53.021 87.229c-7.348 11.26-16.156 16.015-17.999 19.217-1.574 2.735 3.632 17.74 6.804 22.023-7.806 7.042-9.113 7.525-12.84 9.667-3.727 2.142-8.932 3.981-12.814 5.28-3.28-8.56-11.92-34.085-12.57-38.14z"/>
        <linearGradient id="k" x1="85.275%" x2="0%" y1="48.051%" y2="88.871%">
            <stop offset="0%" stop-color="#FDE2CF"/>
            <stop offset="100%" stop-color="#F3CEBB"/>
        </linearGradient>
        <linearGradient id="l" x1="0%" x2="85.275%" y1="88.871%" y2="48.051%">
            <stop offset="0%" stop-color="#FDE2CF"/>
            <stop offset="100%" stop-color="#F3CEBB"/>
        </linearGradient>
        <linearGradient id="m" x1="67.806%" x2="0%" y1="18.335%" y2="88.871%">
            <stop offset="0%" stop-color="#FDE2CF"/>
            <stop offset="100%" stop-color="#F3CEBB"/>
        </linearGradient>
    </defs>
    <g fill="none" fill-rule="evenodd" transform="translate(-19 -1)">
        <mask id="b" fill="#fff">
            <use xlink:href="#a"/>
        </mask>
        <g mask="url(#b)">
            <g transform="rotate(7 -124.538 662.543)">
                <circle cx="67.692" cy="80.385" r="66" fill="url(#c)" fill-rule="nonzero"/>
                <g transform="translate(0 22)">
                    <mask id="g" fill="#fff">
                        <use xlink:href="#d"/>
                    </mask>
                    <use fill="url(#e)" fill-rule="nonzero" xlink:href="#d"/>
                    <path fill="url(#f)" d="M22.054 135.956c14.839-1.822 47.284-37.713 36.567-40.55-10.716-2.838-20.773.497-26.795-5.352-6.023-5.85-24.611 47.724-9.772 45.902zM43.518 14.271s-6.918 2.494-4.715 8.856c2.227 6.426 4.394 11.945 6.747 17.222 2.352 5.277 1.324 8.142.998 7.505-.868-1.695-3.401-11.038-6.817-18.78-4.24-9.608-2.484-7.022-2.8-8.193-1.414-5.233 6.587-6.61 6.587-6.61zM27.66.499l4.044-.123s-7.38 4.185-9.636 6.578c-2.258 2.393.882 5.396 3.185 10.67 2.052 4.699 5.93 13.492 7.6 16.491a28.053 28.053 0 0 1 3.406 12.178c-.376.313-6.075-15.03-8.729-21.92-2.177-5.648-9.06-15.919-7.028-17.683C22.654 4.824 27.661.5 27.661.5zM14.402 6.626c.321 2.859 2.8 7.51 3.758 11.089.958 3.58 8.237 22.433 9.857 27.397 1.43 4.394 1.67 4.823.431 6.025-1.239 1.201-1.208-6.626-3.762-11.09-2.553-4.462-7.43-20.91-9.852-27.397-2.423-6.487-.758-8.881-.432-6.024zM-1.971 57.908c5.106-1.51 10.178-3.64 15.174-.335 4.751 3.139 6.246 4.375 9.015 5.702 2.242 1.076 4.199 6.03.928 5.947-2.814-.071-3.476-4.535-15.27-6.757-11.794-2.223-14.96-3.048-9.847-4.557z" mask="url(#g)"/>
                </g>
                <g transform="translate(71.077)">
                    <mask id="j" fill="#fff">
                        <use xlink:href="#h"/>
                    </mask>
                    <g fill-rule="evenodd">
                        <use fill="#FDE2CF" xlink:href="#h"/>
                        <use fill="url(#i)" xlink:href="#h"/>
                    </g>
                    <path fill="url(#f)" d="M-4.009 104.735C2 99.481 43.041 67.04 32.378 64.204c-10.663-2.836-22.18 12.55-32.541-6.924-10.361-19.474-9.853 52.709-3.846 47.455z" mask="url(#j)"/>
                    <path fill="url(#k)" d="M41.54 6.517c.03-.04-.573 6.502-1.043 12.683-.479 6.258-.973 12.503-1.951 17.396-.979 4.894-.34 13.129-3.495 12.533-3.154-.595-3.469-1.31-.998-5.013 2.471-3.704 3.195-11.364 3.494-15.54.385-5.34 1.618-10.76.125-19.17-1.008-5.696 3.789-2.786 3.869-2.889zM29.061-2.507s.944 21.412.5 26.57c-.6 6.935-3.974 23.662-5.356 23.238-.65-.2 2.66-13.903 2.86-24.24.23-11.96-1.518-20.288-2.86-24.02-.674-1.866 4.856-1.548 4.856-1.548zM12.09 10.026c3.689 9.849 2.376 19.527 1.497 30.58-.28 3.495.156 10.707 2.182 8.008 2.027-2.698 3.788-32.63 3.808-36.582.02-3.952-8.77-5.427-7.487-2.006z" mask="url(#j)"/>
                    <path fill="url(#l)" d="M45.534 74.195c-7.093 5.13-12.275 6.33-12.978 6.016-3.265-1.458 10.193-4.782 11.98-16.544 2.33-15.37 7.437 5.869.998 10.528z" mask="url(#j)"/>
                    <path fill="url(#m)" d="M46.532 99.762c-5.42 1.345-13.098 5.973-18.469 5.515-7.542-.644-15.32 3.244-11.48 3.008 5.73-.351 7.986 38.007 11.48 37.433 3.494-.574 23.89-47.3 18.47-45.956z" mask="url(#j)"/>
                </g>
            </g>
        </g>
        <path fill="#FFCF18" d="M77.877 61.55c1.178-.625-13.936-7.114-22.382-12.041-8.446-4.928-20.862-3.479-13.514 5.083 7.348 8.562 12.112 9.029 23.227 7.492 11.114-1.536 11.49.09 12.669-.535z" mask="url(#b)" transform="rotate(17 58.844 54.732)"/>
        <path fill="#00C14C" d="M159.484 23.734c1.179-.624-6.147-12.396-14.593-17.324-8.446-4.928-18.635-3.034-11.287 5.528 7.348 8.562 2.565 10.078 13.68 8.542 11.115-1.536 11.022 3.879 12.2 3.254z" mask="url(#b)" transform="scale(-1 1) rotate(17 0 -958.756)"/>
        <g mask="url(#b)">
            <path fill="#EC3636" d="M229.297 23.312s.434 1.854-9.829 3.205c-10.262 1.35-6.568-7.17-10.905-6.977-4.337.192-2.792-4.612-2.792-4.612l19.209.007 4.317 8.377z"/>
            <path fill="#FC6161" d="M195.42 35.054c.867-.184 6.417-16.149 17.809-17.67 11.391-1.523 14.09 3.338 14.786 5.807.695 2.468 1.652-7.04-2.73-9.49-4.384-2.45-14.542-5.524-21.897 2.562-7.355 8.086-8.835 18.975-7.968 18.791z"/>
        </g>
        <g mask="url(#b)">
            <path fill="#EC3636" d="M54.05 32.385c-2.026.76 5.35 6.098 13.727 3.2 8.378-2.898 14.326-2.475 18.916-2.588 4.59-.113-2.98-2.662-2.98-2.662l-21.492-2.42-8.17 4.47z"/>
            <path fill="#FC6161" d="M95.218 39.406c-2.065-1.338-4.169-4.067-15.123-7.544-10.954-3.477-19.136 1.751-24.588 1.751-5.453 0 1.886-5.313 6.628-6.965 4.742-1.652 14.596-2.915 23.754 2.653 9.158 5.569 11.394 11.444 9.33 10.105z"/>
        </g>
        <circle cx="38.231" cy="112.538" r="5.077" fill="#D3F6FD" mask="url(#b)"/>
        <circle cx="23" cy="81.231" r="3.385" fill="#D3F4E0" mask="url(#b)"/>
        <circle cx="114.385" cy="22.846" r="5.077" fill="#579FFF" mask="url(#b)"/>
        <circle cx="224.385" cy="71.077" r="6.769" fill="#FFE377" mask="url(#b)"/>
        <circle cx="224.385" cy="93.923" r="3.385" fill="#FFDBDA" mask="url(#b)"/>
        <circle cx="61.077" cy="93.923" r="3.385" fill="#FC6161" mask="url(#b)"/>
        <circle cx="155.846" cy="30.462" r="3.385" fill="#FC6161" mask="url(#b)"/>
        <circle cx="217.615" cy="55" r="3.385" fill="#D3F4E0" mask="url(#b)"/>
        <rect width="1" height="27.077" x="50.746" y="62.346" fill="#003379" mask="url(#b)" rx=".5" transform="rotate(-85 51.17 75.885)"/>
        <rect width="1" height="27.077" x="104.614" y="10.46" fill="#003379" mask="url(#b)" rx=".5" transform="rotate(-28 105.037 23.999)"/>
        <rect width="1" height="25.385" x="171.186" y="5.185" fill="#003379" mask="url(#b)" rx=".5" transform="rotate(15 171.61 17.878)"/>
        <rect width="1" height="16.923" x="210.043" y="35.697" fill="#003379" mask="url(#b)" rx=".5" transform="rotate(50 210.466 44.159)"/>
    </g>
</svg>
