<svg xmlns="http://www.w3.org/2000/svg" width="151" height="48" viewBox="0 0 151 48">
    <g fill="none" fill-rule="nonzero">
        <path fill="#FC1D2C" d="M24.16 45.961a6.634 6.634 0 0 1 0-9.388L58.741 2.04a6.655 6.655 0 0 1 9.4 0 6.634 6.634 0 0 1 0 9.388L33.561 45.96c-2.638 2.591-6.806 2.591-9.401 0z"/>
        <path fill="#FEDD33" d="M41.004 45.961a6.634 6.634 0 0 1 0-9.388L75.585 2.04a6.655 6.655 0 0 1 9.4 0 6.634 6.634 0 0 1 0 9.388L50.405 45.96a6.655 6.655 0 0 1-9.401 0z"/>
        <path fill="#1CB743" d="M58.23 45.961a6.634 6.634 0 0 1 0-9.388L92.813 2.04a6.655 6.655 0 0 1 9.4 0 6.634 6.634 0 0 1 0 9.388L67.631 45.96a6.655 6.655 0 0 1-9.4 0z"/>
        <path fill="#24C2F3" d="M74.777 45.961a6.634 6.634 0 0 1 0-9.388L109.358 2.04a6.655 6.655 0 0 1 9.4 0 6.634 6.634 0 0 1 0 9.388L84.178 45.96c-2.638 2.591-6.806 2.591-9.401 0z"/>
        <path fill="#FFF" d="M150.787 23.448l-2.552.255c-.468.042-1.02.085-1.446.127v-2.209h3.318v-8.665h-3.36V5.352l-10.677 3.95v3.654h-.723v-.425h-.553c.468-.85.723-1.784.723-2.804v-.042c-.085-3.186-2.382-5.48-5.53-5.48-1.573 0-3.02.595-4.04 1.7-.979 1.019-1.489 2.378-1.446 3.822 0 1.02.255 1.954.723 2.804h-18.588v3.526c-1.914-2.422-4.892-3.866-8.422-3.866-4.85 0-8.592 2.506-10.166 6.414a9.876 9.876 0 0 0-2.127-3.568c-1.701-1.826-4.04-2.846-6.465-2.846-.936 0-1.83.128-2.637.34h-9.826l.128 3.1c-1.447-2.166-3.786-3.44-6.721-3.44-1.701 0-3.148.382-4.551 1.147-.085.043-.17.085-.255.17-1.277-.85-2.85-1.317-4.552-1.317-.893 0-1.744.128-2.552.34h-9.825l.17 3.186c0 .34.042.722.042 1.104-1.871-2.888-5.104-4.672-8.975-4.672-1.999 0-3.828.424-5.402 1.232l.851-.893H11.91l-.596.68v-9.77L.34 7.858v25.7h10.974v-1.742l.809 1.742h13.015l-.468-.808a11.52 11.52 0 0 0 5.062 1.147c3.53 0 7.231-1.571 9.315-4.842v4.503h28.584l.213 7.9 10.25-3.865v-3.738c.298.042.596.042.894.042 3.743 0 7.529-2.251 9.102-6.541 1.532 3.95 5.275 6.541 9.996 6.541 2.935 0 5.998-1.062 8.124-3.313v2.974h29.18V21.664h.723v3.44c0 2.931.68 5.055 2.126 6.542 1.362 1.402 3.446 2.209 5.7 2.209 1.531 0 4.466-.552 5.062-.68l1.914-.382-.128-9.345zM17.354 21.027l2.382-2.55c-.595 1.403-.935 2.974-.935 4.716v.255l-1.447-2.421zm91.536 2.336v-.467-.553h1.021l-1.02 1.02zm13.229.382l2.51-2.718v2.718h-2.51z"/>
        <path fill="#1F191A" d="M13.526 31.221l-2.977-6.329-1.66 1.614v4.715H2.596V9.431L8.89 6.88V19.37l3.998-4.503h7.018l-5.444 5.862 6.423 10.492zM29.605 31.561c-4.977 0-8.465-3.44-8.465-8.41 0-5.14 3.488-8.624 8.677-8.624 4.934 0 8.337 3.441 8.337 8.326.085 6.032-4.253 8.708-8.55 8.708zm.127-12.276c-2.212 0-2.34 3.143-2.34 3.738 0 1.827.596 3.738 2.34 3.738 1.361 0 2.254-1.487 2.254-3.738 0-1.742-.595-3.738-2.254-3.738zM60.145 31.221v-8.835c0-2.676-1.149-2.676-1.531-2.676-.809 0-1.32.594-1.532 1.147a3.05 3.05 0 0 0-.17.934v9.43H50.66v-9.09c0-1.104-.255-2.464-1.488-2.464-1.021 0-1.446.935-1.574 1.19-.085.255-.128.51-.128.934v9.388h-6.21V20.304c0-1.869-.085-3.44-.127-4.715l-.043-.764h5.572l.128 1.104c1.148-.934 2.594-1.444 4.253-1.444 1.872 0 3.446.765 4.424 2.039.468-.467.978-.85 1.531-1.19.978-.552 2.084-.849 3.36-.849 3.786 0 6.04 2.676 6.04 7.179v9.515h-6.252v.042zM69.97 38.103l-.425-17.501c0-1.997-.085-3.696-.128-4.97l-.042-.765h5.444l.128 1.19c1.148-.977 2.68-1.487 4.466-1.487 3.446 0 6.933 2.846 6.933 8.326 0 5.989-3.87 8.708-7.486 8.708-1.233 0-2.34-.298-3.232-.85v5.267l-5.658 2.082zm7.827-18.478c-.978 0-1.83.764-2.084 1.784a3.297 3.297 0 0 0-.085.68v2.038c0 .298.042.595.085.808.255.977 1.063 1.614 1.999 1.614 2.297 0 2.467-2.676 2.467-3.484.042-.807-.17-3.44-2.382-3.44zM97.959 31.561c-4.977 0-8.465-3.44-8.465-8.41 0-5.14 3.488-8.624 8.677-8.624 4.934 0 8.337 3.441 8.337 8.326.043 6.032-4.296 8.708-8.55 8.708zm.127-12.276c-2.212 0-2.34 3.143-2.34 3.738 0 1.827.596 3.738 2.34 3.738 1.361 0 2.255-1.487 2.255-3.738-.043-1.742-.596-3.738-2.255-3.738zM108.422 31.221v-4.035l7.104-7.221h-6.55v-5.098h14.674v3.738l-6.89 7.476h7.188v5.14zM126.968 14.867h6.083v16.354h-6.083zM129.945 12.913c-.893 0-1.744-.34-2.297-.977a2.972 2.972 0 0 1-.808-2.209c0-.85.255-1.656.808-2.208.596-.638 1.404-.977 2.34-.977 1.829 0 3.147 1.316 3.19 3.185.042 1.87-1.319 3.186-3.233 3.186zM143.897 31.519c-1.617 0-3.063-.553-3.999-1.487-.978-1.02-1.488-2.634-1.488-4.928v-5.777h-2.85v-4.035h2.85v-4.375l5.997-2.209v6.584h3.318v3.993h-3.318v5.097c0 1.912.468 1.912 1.106 1.912.425 0 2.935-.255 2.935-.255l.042 4.842s-3.19.638-4.593.638z"/>
    </g>
</svg>
